<svg width="166" height="62" fill="none" xmlns="http://www.w3.org/2000/svg"><circle cx="31" cy="31" r="30.5" stroke="#fff" stroke-opacity=".5"/><circle cx="62" cy="31" r="30.5" stroke="#fff" stroke-opacity=".5"/><path d="M35.108 45l-1.764-5.292H21.626L19.862 45h-6.258l10.29-29.4h7.182L41.408 45h-6.3zM23.474 34.29h8.064l-4.032-12.012-4.032 12.012zm25.04-6.678c.505-1.344 1.33-2.352 2.479-3.024 1.176-.672 2.478-1.008 3.906-1.008v6.048c-1.652-.196-3.136.14-4.452 1.008-1.288.868-1.932 2.31-1.932 4.326V45h-5.418V24h5.418v3.612zm21.225 1.596h-4.746v8.736c0 .728.182 1.26.546 1.596.364.336.896.532 1.596.588.7.028 1.568.014 2.604-.042V45c-3.724.42-6.356.07-7.896-1.05-1.512-1.12-2.268-3.122-2.268-6.006v-8.736h-3.654V24h3.654v-4.242l5.418-1.638V24h4.746v5.208z" fill="#FFBCA2"/><path d="M112.001 30.3c0 3.808-1.204 7.112-3.612 9.912l3.024 3.15-4.116 3.654-3.192-3.318c-2.268 1.26-4.732 1.89-7.392 1.89-4.228 0-7.826-1.47-10.794-4.41-2.968-2.968-4.452-6.594-4.452-10.878s1.484-7.896 4.452-10.836c2.968-2.968 6.566-4.452 10.794-4.452 4.228 0 7.826 1.484 10.794 4.452 2.996 2.94 4.494 6.552 4.494 10.836zm-15.288 9.618c1.092 0 2.184-.182 3.276-.546l-4.83-5.04 4.116-3.654 5.166 5.376c1.176-1.68 1.764-3.598 1.764-5.754 0-2.8-.91-5.11-2.73-6.93-1.82-1.82-4.074-2.73-6.762-2.73-2.688 0-4.942.91-6.762 2.73-1.82 1.82-2.73 4.13-2.73 6.93 0 2.772.91 5.068 2.73 6.888 1.82 1.82 4.074 2.73 6.762 2.73zM129.178 24h5.418v21h-5.418v-2.352c-1.316 1.96-3.402 2.94-6.258 2.94-2.296 0-4.2-.77-5.712-2.31-1.484-1.54-2.226-3.668-2.226-6.384V24h5.418v12.222c0 1.4.378 2.478 1.134 3.234.756.728 1.764 1.092 3.024 1.092 1.4 0 2.52-.434 3.36-1.302.84-.868 1.26-2.17 1.26-3.906V24zm12.154-2.52c-.896 0-1.68-.322-2.352-.966-.644-.672-.966-1.456-.966-2.352 0-.896.322-1.68.966-2.352.672-.672 1.456-1.008 2.352-1.008.924 0 1.708.336 2.352 1.008.672.672 1.008 1.456 1.008 2.352 0 .896-.336 1.68-1.008 2.352-.644.644-1.428.966-2.352.966zM138.644 45V24h5.418v21h-5.418zm16.057-5.082h9.324V45h-16.59v-3.612l8.862-12.306h-8.442V24h15.75v3.612l-8.904 12.306z" fill="#fff"/></svg>