<svg width="58" height="48" fill="none" xmlns="http://www.w3.org/2000/svg"><path d="M4.764 43.168c-1.264 0-2.308-.42-3.132-1.26C.808 41.068.396 40.032.396 38.8c0-1.24.412-2.276 1.236-3.108.824-.84 1.868-1.26 3.132-1.26.76 0 1.46.18 2.1.54a3.856 3.856 0 011.512 1.44l-1.428.828a2.178 2.178 0 00-.888-.876 2.597 2.597 0 00-1.296-.324c-.816 0-1.476.256-1.98.768-.496.512-.744 1.176-.744 1.992 0 .808.248 1.468.744 1.98.504.512 1.164.768 1.98.768.48 0 .912-.104 1.296-.312.392-.216.688-.508.888-.876l1.428.828a3.965 3.965 0 01-1.5 1.452 4.31 4.31 0 01-2.112.528zM13.416 37h1.548v6h-1.548v-.708c-.464.584-1.116.876-1.956.876-.8 0-1.488-.304-2.064-.912-.568-.616-.852-1.368-.852-2.256 0-.888.284-1.636.852-2.244.576-.616 1.264-.924 2.064-.924.84 0 1.492.292 1.956.876V37zm-2.856 4.224c.312.312.708.468 1.188.468s.876-.156 1.188-.468c.32-.32.48-.728.48-1.224s-.16-.9-.48-1.212c-.312-.32-.708-.48-1.188-.48s-.876.16-1.188.48c-.312.312-.468.716-.468 1.212s.156.904.468 1.224zm8.74-2.736h-1.356v2.496c0 .208.052.36.156.456.104.096.256.152.456.168.2.008.448.004.744-.012V43c-1.064.12-1.816.02-2.256-.3-.432-.32-.648-.892-.648-1.716v-2.496h-1.044V37h1.044v-1.212l1.548-.468V37H19.3v1.488zm1.712 2.148c.208.752.772 1.128 1.692 1.128.592 0 1.04-.2 1.344-.6l1.248.72c-.592.856-1.464 1.284-2.616 1.284-.992 0-1.788-.3-2.388-.9-.6-.6-.9-1.356-.9-2.268 0-.904.296-1.656.888-2.256.592-.608 1.352-.912 2.28-.912.88 0 1.604.304 2.172.912.576.608.864 1.36.864 2.256 0 .2-.02.412-.06.636h-4.524zm-.024-1.2h3.06c-.088-.408-.272-.712-.552-.912-.272-.2-.584-.3-.936-.3-.416 0-.76.108-1.032.324-.272.208-.452.504-.54.888zM30.726 37h1.512v5.712c0 .928-.308 1.636-.924 2.124-.608.488-1.344.732-2.208.732-.648 0-1.22-.124-1.716-.372a2.608 2.608 0 01-1.128-1.092l1.32-.756c.304.56.828.84 1.572.84.488 0 .872-.128 1.152-.384.28-.256.42-.62.42-1.092v-.648c-.456.608-1.096.912-1.92.912-.848 0-1.56-.296-2.136-.888-.568-.6-.852-1.328-.852-2.184 0-.848.288-1.572.864-2.172.576-.6 1.284-.9 2.124-.9.824 0 1.464.304 1.92.912V37zm-2.892 4.092c.32.304.724.456 1.212.456s.888-.152 1.2-.456c.32-.312.48-.708.48-1.188 0-.472-.16-.86-.48-1.164-.312-.312-.712-.468-1.2-.468s-.892.156-1.212.468c-.312.304-.468.692-.468 1.164 0 .48.156.876.468 1.188zm10.42 1.164c-.616.608-1.368.912-2.256.912-.888 0-1.64-.304-2.256-.912-.608-.616-.912-1.368-.912-2.256 0-.888.304-1.636.912-2.244.616-.616 1.368-.924 2.256-.924.888 0 1.64.308 2.256.924.616.608.924 1.356.924 2.244 0 .888-.308 1.64-.924 2.256zm-3.42-1.068c.312.312.7.468 1.164.468a1.58 1.58 0 001.164-.468c.312-.312.468-.708.468-1.188s-.156-.876-.468-1.188a1.58 1.58 0 00-1.164-.468 1.58 1.58 0 00-1.164.468c-.304.312-.456.708-.456 1.188s.152.876.456 1.188zm6.48-3.156c.145-.384.38-.672.709-.864a2.21 2.21 0 011.116-.288v1.728a1.844 1.844 0 00-1.272.288c-.368.248-.552.66-.552 1.236V43h-1.548v-6h1.548v1.032zm2.998-1.752a.94.94 0 01-.948-.948.94.94 0 01.276-.672.921.921 0 01.672-.288c.264 0 .488.096.672.288a.921.921 0 01.288.672c0 .256-.096.48-.288.672a.915.915 0 01-.672.276zM43.544 43v-6h1.548v6h-1.548zm3.773-2.364c.208.752.772 1.128 1.692 1.128.592 0 1.04-.2 1.344-.6l1.248.72c-.592.856-1.464 1.284-2.616 1.284-.992 0-1.788-.3-2.388-.9-.6-.6-.9-1.356-.9-2.268 0-.904.296-1.656.888-2.256.592-.608 1.352-.912 2.28-.912.88 0 1.604.304 2.172.912.576.608.864 1.36.864 2.256 0 .2-.02.412-.06.636h-4.524zm-.024-1.2h3.06c-.088-.408-.272-.712-.552-.912-.272-.2-.584-.3-.936-.3-.416 0-.76.108-1.032.324-.272.208-.452.504-.54.888zm6.382-.732c0 .16.104.292.312.396.216.096.476.184.78.264.304.072.608.168.912.288.304.112.56.304.768.576.216.272.324.612.324 1.02 0 .616-.232 1.092-.696 1.428-.456.328-1.028.492-1.716.492-1.232 0-2.072-.476-2.52-1.428l1.344-.756c.176.52.568.78 1.176.78.552 0 .828-.172.828-.516 0-.16-.108-.288-.324-.384a4.02 4.02 0 00-.768-.276 8.092 8.092 0 01-.912-.3 1.94 1.94 0 01-.78-.564c-.208-.264-.312-.592-.312-.984 0-.592.216-1.056.648-1.392.44-.344.984-.516 1.632-.516.488 0 .932.112 1.332.336.4.216.716.528.948.936l-1.32.72c-.192-.408-.512-.612-.96-.612-.2 0-.368.044-.504.132a.415.415 0 00-.192.36z" fill="#fff"/><path d="M25.667 12.083h-7a.417.417 0 01-.417-.416v-7a.417.417 0 01.417-.417h7a.417.417 0 01.416.417v7a.417.417 0 01-.416.416zm11.666 0h-7a.417.417 0 01-.416-.416v-7a.417.417 0 01.416-.417h7a.417.417 0 01.417.417v7a.417.417 0 01-.417.416zM25.667 23.75h-7a.417.417 0 01-.417-.417v-7a.417.417 0 01.417-.416h7a.417.417 0 01.416.416v7a.417.417 0 01-.416.417zm12.083-3.917a3.921 3.921 0 01-3.917 3.917 3.921 3.921 0 01-3.916-3.917 3.921 3.921 0 013.916-3.916 3.921 3.921 0 013.917 3.916z" stroke="#fff" stroke-width="1.5"/></svg>