<svg width="31" height="48" fill="none" xmlns="http://www.w3.org/2000/svg"><path d="M6.096 34.6H7.2V43H6.096v-3.78h-4.08V43H.9v-8.4h1.116v3.564h4.08V34.6zm7.358 7.644c-.616.608-1.364.912-2.244.912-.88 0-1.628-.304-2.244-.912-.608-.608-.912-1.356-.912-2.244 0-.888.304-1.636.912-2.244.616-.608 1.364-.912 2.244-.912.88 0 1.628.304 2.244.912.616.608.924 1.356.924 2.244 0 .888-.308 1.636-.924 2.244zm-2.244-.108c.6 0 1.104-.204 1.512-.612.408-.408.612-.916.612-1.524s-.204-1.116-.612-1.524c-.408-.408-.912-.612-1.512-.612a2.04 2.04 0 00-1.5.612c-.408.408-.612.916-.612 1.524s.204 1.116.612 1.524a2.04 2.04 0 001.5.612zm10.378-5.292c.672 0 1.216.22 1.632.66.416.432.624 1.02.624 1.764V43H22.8v-3.696c0-.464-.12-.824-.36-1.08-.24-.256-.56-.384-.96-.384-.448 0-.808.152-1.08.456-.264.296-.396.752-.396 1.368V43H18.96v-3.696c0-.464-.116-.824-.348-1.08-.224-.256-.532-.384-.924-.384-.44 0-.808.152-1.104.456-.288.304-.432.76-.432 1.368V43h-1.044v-6h1.044v.804c.408-.64 1.004-.96 1.788-.96.808 0 1.396.34 1.764 1.02.416-.68 1.044-1.02 1.884-1.02zm3.936 3.636c.104.536.348.952.732 1.248.392.296.872.444 1.44.444.792 0 1.368-.292 1.728-.876l.888.504c-.584.904-1.464 1.356-2.64 1.356-.952 0-1.728-.296-2.328-.888-.592-.6-.888-1.356-.888-2.268 0-.904.292-1.656.876-2.256.584-.6 1.34-.9 2.268-.9.88 0 1.596.312 2.148.936.56.616.84 1.36.84 2.232 0 .152-.012.308-.036.468h-5.028zm2.076-2.652c-.56 0-1.024.16-1.392.48-.368.312-.596.732-.684 1.26h4.008c-.088-.568-.312-1-.672-1.296a1.924 1.924 0 00-1.26-.444zM13.308 2.954a2.625 2.625 0 013.384 0l7.875 6.64c.591.5.933 1.234.933 2.007v11.437a2.042 2.042 0 01-2.042 2.042h-4.083a2.042 2.042 0 01-2.042-2.042V16.62a.292.292 0 00-.291-.291h-4.084a.292.292 0 00-.291.291v6.417a2.042 2.042 0 01-2.042 2.042H6.542A2.042 2.042 0 014.5 23.038V11.6c0-.773.342-1.507.933-2.007l7.875-6.64zm2.255 1.338a.875.875 0 00-1.127 0l-7.875 6.64a.875.875 0 00-.311.668v11.437c0 .16.13.291.292.291h4.083a.291.291 0 00.292-.291V16.62c0-1.128.914-2.042 2.041-2.042h4.084c1.127 0 2.041.914 2.041 2.042v6.417c0 .16.131.291.292.291h4.083a.292.292 0 00.292-.291V11.6a.875.875 0 00-.311-.668l-7.876-6.641z" fill="#fff"/></svg>