<svg width="60" height="60" fill="none" xmlns="http://www.w3.org/2000/svg"><g clip-path="url(#clip0_926_851)"><circle cx="30.128" cy="30.128" r="30.128" fill="#FF7E7E"/><path d="M38.752 18.548l.145.348-.145-.348a2.078 2.078 0 00-.674.451L30 27.061l-8.08-8.079a2.08 2.08 0 00-.674-.45l-.14.34.14-.34a2.079 2.079 0 00-2.264 3.389l.266-.266-.266.266L27.06 30l-8.08 8.08a2.076 2.076 0 00.675 3.388 2.077 2.077 0 002.265-.45l8.08-8.08 8.078 8.08a2.08 2.08 0 002.94-2.939L32.937 30l8.08-8.079a2.087 2.087 0 000-2.922 2.079 2.079 0 00-2.266-.45z" fill="#fff" stroke="#fff" stroke-width=".753"/></g><defs><clipPath id="clip0_926_851"><path fill="#fff" d="M0 0h60v60H0z"/></clipPath></defs></svg>