<svg width="36" height="36" fill="none" xmlns="http://www.w3.org/2000/svg"><path d="M30.375 18.855v-1.721l2.16-1.89a2.25 2.25 0 00.428-2.869l-2.655-4.5A2.25 2.25 0 0028.36 6.75a2.25 2.25 0 00-.72.113l-2.733.922a12.773 12.773 0 00-1.474-.844l-.574-2.835a2.25 2.25 0 00-2.25-1.811h-5.265a2.25 2.25 0 00-2.25 1.811l-.574 2.835c-.513.248-1.009.53-1.485.844L8.36 6.818a2.25 2.25 0 00-.72-.068 2.25 2.25 0 00-1.946 1.125l-2.655 4.5a2.25 2.25 0 00.46 2.824l2.127 1.946v1.721L3.5 20.756a2.25 2.25 0 00-.461 2.869l2.655 4.5A2.25 2.25 0 007.64 29.25c.244.002.487-.036.72-.113l2.733-.922c.473.314.965.596 1.474.844l.574 2.835a2.25 2.25 0 002.25 1.811h5.31a2.25 2.25 0 002.25-1.811l.574-2.835c.513-.248 1.009-.53 1.485-.844l2.722.922c.233.077.476.115.72.113a2.25 2.25 0 001.947-1.125l2.564-4.5a2.25 2.25 0 00-.46-2.824l-2.127-1.946zM28.361 27l-3.858-1.305a9.967 9.967 0 01-3.05 1.766l-.798 4.039h-5.31l-.799-3.994a10.53 10.53 0 01-3.037-1.766L7.639 27l-2.655-4.5 3.06-2.7a10.012 10.012 0 010-3.521L4.984 13.5 7.639 9l3.859 1.305a9.968 9.968 0 013.048-1.766l.799-4.039h5.31l.799 3.994a10.53 10.53 0 013.037 1.766L28.361 9l2.655 4.5-3.06 2.7a10.014 10.014 0 010 3.521l3.06 2.779-2.655 4.5z" fill="#fff"/><path d="M18 24.75A6.75 6.75 0 1124.75 18 6.684 6.684 0 0118 24.75zm0-11.25a4.399 4.399 0 00-4.5 4.5 4.399 4.399 0 004.5 4.5 4.399 4.399 0 004.5-4.5 4.399 4.399 0 00-4.5-4.5z" fill="#fff"/></svg>