<svg width="440" height="165" fill="none" xmlns="http://www.w3.org/2000/svg"><circle cx="82.169" cy="82.169" r="80.843" stroke="#fff" stroke-width="2.651"/><circle cx="164.337" cy="82.169" r="80.843" stroke="#fff" stroke-width="2.651"/><path d="M109.757 112.651H93.058l-4.676-14.027h-31.06l-4.675 14.027H36.06l27.274-77.928h19.037l27.386 77.928zM72.908 52.424L62.221 84.263h21.375l-10.688-31.84zm55.685 4.564v9.574c1.262-3.488 3.414-6.123 6.457-7.904 3.043-1.856 6.531-2.783 10.465-2.783v16.03c-4.379-.593-8.313.297-11.801 2.672-3.414 2.301-5.121 6.123-5.121 11.467v26.607h-14.361V56.988h14.361zm56.258 0v13.804h-12.579v23.156c0 1.93.482 3.34 1.447 4.23.965.89 2.375 1.41 4.23 1.559 1.856.074 4.156.037 6.902-.111v13.025c-9.722 1.113-16.661.222-20.818-2.672-4.081-2.969-6.122-8.312-6.122-16.031V70.792h-9.686V56.988h9.686V45.744l14.361-4.342v15.586h12.579zM296.87 73.687c0 10.019-3.191 18.777-9.574 26.273l8.015 8.349-10.909 9.685-8.461-8.794c-6.012 3.339-12.543 5.009-19.593 5.009-11.133 0-20.67-3.896-28.611-11.689-7.867-7.867-11.801-17.478-11.801-28.833 0-11.355 3.934-20.93 11.801-28.722 7.867-7.867 17.404-11.8 28.611-11.8 11.206 0 20.743 3.933 28.61 11.8 7.941 7.793 11.912 17.367 11.912 28.722zM256.348 99.18c2.968 0 5.863-.482 8.683-1.447l-12.802-13.359 10.909-9.685 13.693 14.25c3.118-4.454 4.676-9.538 4.676-15.252 0-7.422-2.412-13.545-7.236-18.369s-10.799-7.236-17.923-7.236c-7.125 0-13.1 2.412-17.924 7.236s-7.236 10.947-7.236 18.369c0 7.347 2.412 13.433 7.236 18.257 4.824 4.824 10.799 7.236 17.924 7.236zm86.053-12.134V56.988h14.361v55.663h-14.361v-6.235c-3.414 5.196-8.943 7.793-16.588 7.793-6.085 0-11.132-2.041-15.14-6.123-3.933-4.156-5.9-9.796-5.9-16.921V56.988h14.361v32.396c0 3.636.965 6.457 2.894 8.46 2.004 2.004 4.713 3.006 8.127 3.006 3.785 0 6.754-1.15 8.906-3.451 2.227-2.375 3.34-5.826 3.34-10.353zm32.215-36.738c-2.375 0-4.453-.853-6.234-2.56-1.707-1.781-2.561-3.86-2.561-6.234 0-2.375.854-4.453 2.561-6.235 1.781-1.78 3.859-2.671 6.234-2.671 2.449 0 4.527.89 6.234 2.672 1.782 1.78 2.672 3.859 2.672 6.234s-.89 4.453-2.672 6.234c-1.707 1.707-3.785 2.56-6.234 2.56zm7.236 62.343h-14.361V56.988h14.361v55.663zm51.8-46.09l-23.601 32.62h24.714v13.47h-43.973v-9.574l23.489-32.619h-22.376v-13.47h41.747v9.574z" fill="#fff"/></svg>