<svg width="30" height="48" fill="none" xmlns="http://www.w3.org/2000/svg"><path d="M3.612 43.156c-.784 0-1.456-.184-2.016-.552a2.93 2.93 0 01-1.164-1.512l.96-.552c.328 1.016 1.076 1.524 2.244 1.524.576 0 1.016-.116 1.32-.348a1.15 1.15 0 00.456-.948c0-.4-.152-.7-.456-.9-.304-.2-.812-.412-1.524-.636-.352-.112-.62-.2-.804-.264a10.013 10.013 0 01-.696-.312c-.272-.144-.476-.288-.612-.432a2.399 2.399 0 01-.372-.588 2.034 2.034 0 01-.156-.816c0-.728.256-1.304.768-1.728.512-.432 1.136-.648 1.872-.648.664 0 1.24.168 1.728.504.496.336.868.78 1.116 1.332l-.936.54c-.36-.864-.996-1.296-1.908-1.296-.456 0-.824.112-1.104.336-.28.224-.42.528-.42.912 0 .368.132.648.396.84.264.192.72.392 1.368.6a8.986 8.986 0 01.936.324c.208.08.36.144.456.192.096.048.224.116.384.204.168.088.292.172.372.252.08.08.172.18.276.3.112.112.192.228.24.348.048.12.088.26.12.42.04.152.06.316.06.492 0 .736-.268 1.324-.804 1.764-.536.432-1.236.648-2.1.648zm6.578 0c-.904 0-1.656-.3-2.256-.9-.6-.608-.9-1.36-.9-2.256 0-.896.3-1.644.9-2.244.6-.608 1.352-.912 2.256-.912.592 0 1.124.144 1.596.432.472.28.824.66 1.056 1.14l-.876.504a1.769 1.769 0 00-.708-.768 1.996 1.996 0 00-1.068-.288c-.6 0-1.104.204-1.512.612-.4.408-.6.916-.6 1.524 0 .6.2 1.104.6 1.512.408.408.912.612 1.512.612.4 0 .76-.092 1.08-.276.32-.192.564-.448.732-.768l.888.516a2.96 2.96 0 01-1.104 1.14 3.11 3.11 0 01-1.596.42zm8.213-.912c-.616.608-1.364.912-2.244.912-.88 0-1.628-.304-2.244-.912-.608-.608-.912-1.356-.912-2.244 0-.888.304-1.636.912-2.244.616-.608 1.364-.912 2.244-.912.88 0 1.628.304 2.244.912.616.608.924 1.356.924 2.244 0 .888-.308 1.636-.924 2.244zm-2.244-.108c.6 0 1.104-.204 1.512-.612.408-.408.612-.916.612-1.524s-.204-1.116-.612-1.524c-.408-.408-.912-.612-1.512-.612a2.04 2.04 0 00-1.5.612c-.408.408-.612.916-.612 1.524s.204 1.116.612 1.524a2.04 2.04 0 001.5.612zm4.943-4.128c.344-.744.968-1.116 1.872-1.116v1.092c-.512-.024-.952.112-1.32.408-.368.296-.552.772-.552 1.428V43h-1.044v-6h1.044v1.008zm2.797 2.472c.104.536.348.952.732 1.248.392.296.872.444 1.44.444.792 0 1.368-.292 1.728-.876l.888.504c-.584.904-1.464 1.356-2.64 1.356-.952 0-1.728-.296-2.328-.888-.592-.6-.888-1.356-.888-2.268 0-.904.292-1.656.876-2.256.584-.6 1.34-.9 2.268-.9.88 0 1.596.312 2.148.936.56.616.84 1.36.84 2.232 0 .152-.012.308-.036.468h-5.028zm2.076-2.652c-.56 0-1.024.16-1.392.48-.368.312-.596.732-.684 1.26h4.008c-.088-.568-.312-1-.672-1.296a1.924 1.924 0 00-1.26-.444zm-.067-26.568a1.944 1.944 0 00-.56-.875 1.826 1.826 0 00-.915-.442l-5.313-.9-2.462-4.989a1.915 1.915 0 00-.687-.77 1.809 1.809 0 00-1.943 0c-.293.186-.53.453-.687.77l-2.463 4.989-5.312.9c-.338.057-.655.21-.915.443s-.454.535-.56.875a2.012 2.012 0 00.45 1.97l3.79 3.983-.82 5.545a2.02 2.02 0 00.12 1.044c.132.33.349.616.626.826a1.8 1.8 0 001.937.162L15 22.264l4.806 2.527a1.8 1.8 0 001.936-.163c.277-.21.494-.495.626-.825a2.02 2.02 0 00.121-1.044l-.82-5.545 3.79-3.983c.242-.253.412-.571.492-.919a2.026 2.026 0 00-.042-1.051zm-1.491.894l-4.312 4.53.933 6.308a.43.43 0 01-.158.4.388.388 0 01-.415.034L15 20.552l-5.466 2.874a.383.383 0 01-.414-.034.43.43 0 01-.159-.4l.934-6.307-4.312-4.53a.42.42 0 01-.096-.421.417.417 0 01.12-.188.392.392 0 01.195-.094l6.043-1.024 2.801-5.674a.41.41 0 01.147-.165.386.386 0 01.415 0 .41.41 0 01.147.165l2.801 5.674 6.043 1.024c.072.012.14.045.195.095.055.05.097.114.12.186a.433.433 0 01-.096.421z" fill="#fff"/></svg>