<svg width="85" height="31" fill="none" xmlns="http://www.w3.org/2000/svg"><g clip-path="url(#clip0_3406_65)"><path d="M43.884 10.268l4.044-.257c.092.65.261 1.133.538 1.48.446.544 1.061.815 1.876.815.6 0 1.076-.135 1.4-.422a1.188 1.188 0 00.03-1.903c-.308-.272-1.03-.544-2.168-.785-1.86-.408-3.198-.951-3.983-1.646a3.256 3.256 0 01-1.199-2.612c0-.695.215-1.39.615-1.963a4.03 4.03 0 011.845-1.45c.815-.347 1.953-.528 3.383-.528 1.753 0 3.09.317 4.013.966.923.634 1.476 1.661 1.645 3.065l-3.997.227c-.108-.604-.323-1.042-.677-1.329-.354-.287-.815-.423-1.415-.423-.492 0-.86.106-1.107.302-.23.181-.384.453-.369.755 0 .227.123.438.308.574.2.181.676.347 1.43.498 1.86.393 3.183.785 3.998 1.193.815.408 1.399.906 1.753 1.495a3.69 3.69 0 01.538 2.008c0 .846-.246 1.692-.738 2.401a4.647 4.647 0 01-2.045 1.661c-.877.378-1.984.574-3.306.574-2.337 0-3.952-.438-4.86-1.329-.906-.89-1.444-2.008-1.552-3.367zM.969 14.738v-13.5h7.088c1.307 0 2.322.106 3.014.332a3.18 3.18 0 011.676 1.239c.446.649.661 1.404.646 2.189a3.597 3.597 0 01-1.83 3.262 4.747 4.747 0 01-1.492.528 4.28 4.28 0 011.107.498c.262.212.477.453.677.71.23.257.43.544.6.846l2.06 3.91H9.687L7.411 10.6c-.292-.528-.538-.876-.768-1.042a1.849 1.849 0 00-1.046-.317h-.37v5.481H.97v.015zm4.259-8.034h1.799c.384-.03.753-.09 1.122-.18a1.08 1.08 0 00.692-.424 1.325 1.325 0 00-.153-1.781c-.277-.227-.815-.348-1.584-.348H5.228v2.733zM0 26.304l4.044-.257c.092.65.261 1.133.538 1.48.43.544 1.061.83 1.876.83.6 0 1.076-.135 1.4-.422a1.23 1.23 0 00.491-.967c0-.362-.169-.71-.461-.936-.308-.272-1.03-.544-2.183-.785-1.86-.408-3.199-.951-3.983-1.646a3.255 3.255 0 01-1.2-2.612c0-.695.216-1.39.616-1.963a4.03 4.03 0 011.845-1.45c.815-.347 1.953-.528 3.383-.528 1.753 0 3.09.317 4.013.966.923.65 1.46 1.661 1.63 3.065l-3.998.227c-.108-.604-.323-1.042-.677-1.329-.338-.287-.814-.423-1.414-.408-.492 0-.861.106-1.107.318a.872.872 0 00-.37.755c0 .226.124.437.308.573.2.181.677.348 1.43.499 1.86.392 3.183.785 3.998 1.193.815.407 1.4.905 1.753 1.494.369.604.553 1.299.553 1.994 0 .845-.26 1.676-.737 2.385a4.647 4.647 0 01-2.046 1.661c-.876.378-1.983.574-3.305.574-2.338 0-3.952-.438-4.86-1.329C.63 28.78.124 27.663 0 26.304z" fill="#fff"/><path d="M20.45 25.247l3.722 1.102a6.762 6.762 0 01-1.184 2.567 5.138 5.138 0 01-2 1.555c-.799.348-1.814.529-3.044.529-1.491 0-2.721-.211-3.66-.634-.953-.423-1.768-1.178-2.46-2.25-.691-1.072-1.03-2.446-1.03-4.122 0-2.235.6-3.956 1.815-5.15 1.214-1.192 2.921-1.796 5.135-1.796 1.738 0 3.09.347 4.09 1.027.984.694 1.723 1.751 2.215 3.17l-3.752.816a3.24 3.24 0 00-.415-.906 2.428 2.428 0 00-2.03-.997c-.969 0-1.707.378-2.214 1.148-.385.559-.585 1.45-.585 2.657 0 1.495.231 2.522.692 3.08.462.56 1.107.831 1.953.831.815 0 1.43-.226 1.845-.664.415-.468.723-1.117.908-1.963zm8.688-7.973h4.244V22h4.644v-4.726H42.3v13.5h-4.274v-5.467h-4.644v5.466h-4.244V17.274z" fill="#fff"/><path d="M41.716 24.024c0-2.205.63-3.926 1.876-5.15 1.245-1.222 2.998-1.841 5.228-1.841 2.29 0 4.044.604 5.29 1.812 1.245 1.208 1.86 2.899 1.86 5.073 0 1.586-.277 2.87-.815 3.88a5.707 5.707 0 01-2.337 2.356c-1.03.56-2.307.846-3.83.846-1.552 0-2.828-.242-3.843-.725a5.817 5.817 0 01-2.476-2.295c-.63-1.057-.953-2.37-.953-3.956zm4.244.015c0 1.359.261 2.34.768 2.944.508.59 1.215.891 2.107.891.907 0 1.614-.287 2.122-.875.507-.59.753-1.631.753-3.141 0-1.269-.261-2.205-.784-2.779-.523-.588-1.23-.875-2.122-.875a2.625 2.625 0 00-2.06.89c-.523.59-.784 1.57-.784 2.945zm14.361-.015c0-2.205.63-3.926 1.876-5.15 1.245-1.222 2.998-1.841 5.228-1.841 2.291 0 4.06.604 5.29 1.812 1.23 1.208 1.86 2.899 1.86 5.073 0 1.586-.277 2.87-.815 3.88a5.707 5.707 0 01-2.337 2.356c-1.03.56-2.307.846-3.829.846-1.553 0-2.83-.242-3.844-.725a5.818 5.818 0 01-2.476-2.295c-.63-1.057-.953-2.37-.953-3.956zm4.244.015c0 1.359.261 2.34.769 2.944.507.59 1.215.891 2.106.891.907 0 1.615-.287 2.122-.875.508-.59.754-1.631.754-3.141 0-1.269-.262-2.205-.785-2.779-.522-.588-1.23-.875-2.121-.875a2.604 2.604 0 00-2.06.89c-.524.59-.785 1.57-.785 2.945z" fill="#fff"/><path d="M74.129 17.274h4.244v10.177H85v3.322H74.114V17.274h.015zm-4.678-.779c4.273-3.162 5.59-8.522 2.943-11.972-2.647-3.45-8.257-3.683-12.53-.521-4.272 3.162-5.59 8.522-2.943 11.972 2.648 3.45 8.258 3.683 12.53.521z" fill="#fff"/><path d="M69.451 16.495c4.273-3.162 5.59-8.522 2.943-11.972-2.647-3.45-8.257-3.683-12.53-.521-4.272 3.162-5.59 8.522-2.943 11.972 2.648 3.45 8.258 3.683 12.53.521z" fill="#fff"/><path fill-rule="evenodd" clip-rule="evenodd" d="M60.05 4.243c-4.185 3.097-5.396 8.274-2.883 11.549 2.513 3.275 7.915 3.558 12.1.462 4.183-3.096 5.394-8.274 2.882-11.549-2.513-3.275-7.915-3.558-12.1-.462zm-3.374 11.912c-2.782-3.625-1.358-9.167 3.003-12.394C64.04.533 69.858.717 72.64 4.34c2.782 3.626 1.359 9.168-3.003 12.395-4.36 3.228-10.178 3.045-12.96-.58z" fill="#fff"/><path d="M60.336 9.256L61.874 8.2l1.891 2.643c.323.422.57.875.754 1.374.107.377.077.785-.077 1.147-.2.453-.523.83-.953 1.103-.508.347-.938.543-1.307.604-.354.06-.723 0-1.061-.151a2.557 2.557 0 01-.938-.77l1.322-1.208c.108.166.246.317.4.438.107.075.23.12.369.12a.49.49 0 00.292-.105.498.498 0 00.246-.453 1.506 1.506 0 00-.323-.71l-2.153-2.975zm4.613 1.676l1.4-1.087c.153.181.353.317.568.393.308.09.63.03.892-.166a.92.92 0 00.4-.499.528.528 0 00-.338-.664.462.462 0 00-.139-.03c-.184-.015-.507.06-.984.256-.784.318-1.399.438-1.86.393a1.489 1.489 0 01-1.107-.65 1.608 1.608 0 01-.292-.86c0-.347.092-.695.292-.981a3.84 3.84 0 011.076-1.027c.646-.438 1.215-.65 1.707-.65s.953.227 1.384.695l-1.384 1.072a.84.84 0 00-1.153-.15l-.047.044a.745.745 0 00-.323.393.387.387 0 00.062.362.344.344 0 00.261.136c.123.015.339-.045.646-.18.769-.318 1.353-.5 1.753-.56a1.8 1.8 0 011.015.106c.292.121.538.332.707.59.216.301.338.663.354 1.04.015.394-.092.771-.308 1.103-.276.408-.63.755-1.045 1.027-.846.574-1.538.815-2.091.725a2.265 2.265 0 01-1.446-.83z" fill="#161004"/></g><defs><clipPath id="clip0_3406_65"><path fill="#fff" d="M0 0h85v31H0z"/></clipPath></defs></svg>